HIERARCHY
ROOT Hips
{
  OFFSET 0.000000 0.000000 0.000000
  CHANNELS 6 Xposition Yposition Zposition Xrotation Yrotation Zrotation
  JOINT Spine
  {
    OFFSET 0.000000 10.000000 0.000000
    CHANNELS 3 Xrotation Yrotation Zrotation
    JOINT Chest
    {
      OFFSET 0.000000 15.000000 0.000000
      CHANNELS 3 Xrotation Yrotation Zrotation
      JOINT Neck
      {
        OFFSET 0.000000 15.000000 0.000000
        CHANNELS 3 Xrotation Yrotation Zrotation
        JOINT Head
        {
          OFFSET 0.000000 10.000000 0.000000
          CHANNELS 3 Xrotation Yrotation Zrotation
          End Site
          {
            OFFSET 0.0 5.0 2.0
          }
        }
      }
      JOINT LeftShoulder
      {
        OFFSET 20.000000 5.000000 0.000000
        CHANNELS 3 Xrotation Yrotation Zrotation
        JOINT LeftArm
        {
          OFFSET 15.000000 0.000000 0.000000
          CHANNELS 3 Xrotation Yrotation Zrotation
          JOINT LeftForeArm
          {
            OFFSET 25.000000 0.000000 0.000000
            CHANNELS 3 Xrotation Yrotation Zrotation
            JOINT LeftHand
            {
              OFFSET 20.000000 0.000000 0.000000
              CHANNELS 3 Xrotation Yrotation Zrotation
              End Site
              {
                OFFSET -3.0 0.0 2.0
              }
            }
          }
        }
      }
      JOINT RightShoulder
      {
        OFFSET -20.000000 5.000000 0.000000
        CHANNELS 3 Xrotation Yrotation Zrotation
        JOINT RightArm
        {
          OFFSET -15.000000 0.000000 0.000000
          CHANNELS 3 Xrotation Yrotation Zrotation
          JOINT RightForeArm
          {
            OFFSET -25.000000 0.000000 0.000000
            CHANNELS 3 Xrotation Yrotation Zrotation
            JOINT RightHand
            {
              OFFSET -20.000000 0.000000 0.000000
              CHANNELS 3 Xrotation Yrotation Zrotation
              End Site
              {
                OFFSET 3.0 0.0 2.0
              }
            }
          }
        }
      }
    }
  }
  JOINT LeftUpLeg
  {
    OFFSET 10.000000 -10.000000 0.000000
    CHANNELS 3 Xrotation Yrotation Zrotation
    JOINT LeftLeg
    {
      OFFSET 0.000000 -45.000000 0.000000
      CHANNELS 3 Xrotation Yrotation Zrotation
      JOINT LeftFoot
      {
        OFFSET 0.000000 -45.000000 0.000000
        CHANNELS 3 Xrotation Yrotation Zrotation
        JOINT LeftToeBase
        {
          OFFSET 0.000000 0.000000 10.000000
          CHANNELS 3 Xrotation Yrotation Zrotation
          End Site
          {
            OFFSET 0.0 -1.0 3.0
          }
        }
      }
    }
  }
  JOINT RightUpLeg
  {
    OFFSET -10.000000 -10.000000 0.000000
    CHANNELS 3 Xrotation Yrotation Zrotation
    JOINT RightLeg
    {
      OFFSET 0.000000 -45.000000 0.000000
      CHANNELS 3 Xrotation Yrotation Zrotation
      JOINT RightFoot
      {
        OFFSET 0.000000 -45.000000 0.000000
        CHANNELS 3 Xrotation Yrotation Zrotation
        JOINT RightToeBase
        {
          OFFSET 0.000000 0.000000 10.000000
          CHANNELS 3 Xrotation Yrotation Zrotation
          End Site
          {
            OFFSET 0.0 -1.0 3.0
          }
        }
      }
    }
  }
}
MOTION
Frames: 16
Frame Time: 0.033333
0.001136 0.110426 0.084242 -3.901828 -3.883429 -89.733175 -40.662139 -28.044356 -67.987878 -40.662139 -28.044356 -67.987878 -63.770248 -14.889599 -23.727283 3.592016 -2.700596 73.789059 12.739574 -17.493221 -71.921886 4.436183 -4.926271 -83.998660 -25.301038 14.610067 -120.515112 -25.301038 14.610067 -120.515112 0.602663 0.676194 82.593945 -14.579860 -18.124286 77.442435 -112.475146 -50.564727 144.953328 -112.475146 -50.564727 144.953328 5.120975 0.015826 -0.350155 -36.296552 -0.333446 -1.019895 74.794064 -13.963026 -10.720314 41.764134 0.341332 0.063842 2.071523 -0.081737 4.667675 -51.884593 -2.244019 -4.616964 57.403697 1.703988 1.045809 46.191849 6.503429 2.967844
0.060299 0.111359 0.703422 -3.593563 -3.579062 -89.773036 -42.062117 -28.401278 -66.740717 -42.062117 -28.401278 -66.740717 -64.037532 -14.635384 -23.212799 5.250812 -3.949899 73.848482 12.041236 -16.628838 -71.607607 4.090523 -4.545546 -83.958506 -27.820531 15.885818 -121.152219 -27.820531 15.885818 -121.152219 0.152726 0.167471 81.980257 -15.379124 -19.043251 77.649236 -113.037950 -50.406114 145.417032 -113.037950 -50.406114 145.417032 4.813460 0.012942 -0.303676 -36.394707 -0.252243 -0.768635 73.350411 -13.679210 -10.224402 38.589044 1.244701 0.387003 -0.968684 0.043383 4.753860 -47.767803 -2.077267 -4.686322 48.077658 0.699535 0.455011 36.138066 4.627495 1.785576
0.202013 0.114153 2.015464 -3.842002 -3.822219 -89.731162 -43.696208 -28.798566 -65.276076 -43.696208 -28.798566 -65.276076 -64.521759 -14.273880 -22.442866 7.148064 -5.368340 73.798547 11.058416 -15.430369 -71.072072 3.741605 -4.160409 -83.927380 -31.201520 17.563419 -122.060702 -31.201520 17.563419 -122.060702 -0.168392 -0.195738 81.272351 -16.295207 -20.119989 77.807435 -114.467491 -50.525312 146.210568 -114.467491 -50.525312 146.210568 4.303818 0.010516 -0.282451 -36.296355 -0.168598 -0.513595 71.387536 -13.587992 -9.784611 34.967222 1.871307 0.590545 -4.408434 0.189523 4.891659 -41.862058 -1.787786 -4.652563 37.771498 -0.500760 -0.142960 24.821428 2.092333 0.539095
0.464551 0.119948 4.087343 -6.616058 -6.448525 -89.039278 -44.794313 -29.023833 -64.272821 -44.794313 -29.023833 -64.272821 -64.972363 -13.875515 -21.640996 8.337209 -6.219526 73.441320 10.021536 -14.128112 -70.534035 3.222701 -3.582286 -83.956845 -32.580585 18.100126 -122.821483 -32.580585 18.100126 -122.821483 -0.172623 -0.203285 80.830367 -17.044731 -21.055147 77.763360 -116.561112 -51.219464 147.000864 -116.561112 -51.219464 147.000864 3.767668 0.012852 -0.408643 -35.908256 -0.126392 -0.389216 69.726950 -13.451791 -9.404228 32.786808 2.162055 0.625558 -0.267275 -0.014358 5.187847 -35.585915 -1.502649 -4.703403 32.100031 -1.045137 -0.295239 19.037475 0.582442 0.116326
0.723553 0.127357 6.120797 -14.520623 -12.946616 -85.612183 -45.845889 -29.215965 -63.301614 -45.845889 -29.215965 -63.301614 -65.307994 -13.398300 -20.773696 9.348585 -6.915480 72.953131 8.968519 -12.769504 -70.012423 2.504072 -2.780144 -84.039376 -32.517646 17.769242 -123.621436 -32.517646 17.769242 -123.621436 -0.428851 -0.505612 80.589534 -17.885675 -22.180188 77.523556 -118.554023 -52.080028 147.621135 -118.554023 -52.080028 147.621135 3.164590 0.019025 -0.731430 -35.518929 -0.106528 -0.332263 67.984096 -12.034115 -8.154989 31.021360 3.770776 1.035115 8.402444 -0.439308 5.604653 -30.238480 -1.325708 -4.939316 28.292193 -1.448377 -0.361306 15.783501 -0.305416 -0.036036
0.851114 0.133722 7.192890 -24.978037 -20.479889 -79.804100 -46.693854 -29.361557 -62.514377 -46.693854 -29.361557 -62.514377 -65.501499 -12.978170 -20.056550 9.839145 -7.231298 72.568344 8.277806 -11.912148 -69.488267 1.662780 -1.839289 -84.339537 -33.934713 17.951990 -125.172863 -33.934713 17.951990 -125.172863 -0.862346 -1.015353 80.614438 -18.396339 -22.932555 77.205959 -119.431705 -52.627699 147.782748 -119.431705 -52.627699 147.782748 2.736528 0.026310 -1.131918 -35.269199 -0.096896 -0.305024 66.200767 -10.256680 -6.721413 29.589605 5.661996 1.486029 15.198015 -0.792460 5.916682 -26.621547 -1.235190 -5.229650 25.495973 -2.018138 -0.450695 13.316447 -1.089433 -0.119544
0.882123 0.138649 7.421432 -31.994950 -24.840334 -75.199879 -47.082867 -29.422807 -62.150817 -47.082867 -29.422807 -62.150817 -65.616184 -12.697855 -19.585261 9.868400 -7.237246 72.448263 8.102940 -11.791637 -68.887849 0.460847 -0.521366 -85.046421 -39.205325 19.518802 -128.138494 -39.205325 19.518802 -128.138494 -1.217413 -1.432225 80.723611 -18.488283 -23.093167 77.085619 -118.656831 -52.592846 147.331212 -118.656831 -52.592846 147.331212 2.554949 0.031240 -1.400579 -35.276587 -0.091887 -0.289090 64.338787 -9.192746 -5.793233 28.185973 6.767250 1.699163 16.770859 -0.905032 6.126097 -25.668567 -1.230615 -5.407664 23.479753 -2.573049 -0.530021 11.059652 -1.786607 -0.166500
0.987756 0.142667 8.077033 -35.419681 -26.277428 -72.445288 -47.216206 -29.442796 -62.025771 -47.216206 -29.442796 -62.025771 -65.691636 -12.474787 -19.217925 9.825293 -7.215415 72.522648 7.865623 -11.590992 -68.206187 -1.520589 1.590486 -86.256871 -48.220145 22.070368 -132.508653 -48.220145 22.070368 -132.508653 -1.285935 -1.512236 80.752269 -18.456850 -22.984705 77.259241 -117.759879 -52.037375 147.159109 -117.759879 -52.037375 147.159109 2.498044 0.032975 -1.514256 -35.274143 -0.126144 -0.397535 61.498890 -9.678019 -5.737540 25.830267 6.280937 1.465571 12.458953 -0.686744 6.559087 -24.416644 -1.190948 -5.497605 20.989656 -2.819387 -0.521724 8.656871 -2.284194 -0.168299
1.143167 0.144560 9.181749 -40.275753 -27.702963 -68.215828 -47.231617 -29.445089 -62.011311 -47.231617 -29.445089 -62.011311 -65.760263 -12.268515 -18.879001 9.871803 -7.292158 72.841131 7.186928 -10.728941 -67.506192 -2.712823 2.815652 -87.779544 -56.767884 23.913887 -136.994909 -56.767884 23.913887 -136.994909 -1.158794 -1.362786 80.745657 -18.535379 -22.961900 77.556173 -117.933145 -51.335137 147.741468 -117.933145 -51.335137 147.741468 2.315352 0.032173 -1.598690 -35.208793 -0.261687 -0.825243 58.084847 -11.238779 -6.207447 22.581699 4.955932 1.027543 2.103884 -0.094433 7.140229 -24.005373 -1.151344 -5.412285 19.894268 -3.261790 -0.576257 7.615784 -3.159602 -0.210129
1.303456 0.144365 10.447149 -46.469928 -29.132911 -62.638832 -47.050295 -29.417522 -62.181191 -47.050295 -29.417522 -62.181191 -65.730345 -12.094870 -18.624603 9.739993 -7.251065 73.280545 6.143484 -9.269258 -66.951615 -3.131376 3.158665 -89.435745 -61.755826 24.158325 -140.561261 -61.755826 24.158325 -140.561261 -0.965155 -1.135051 80.748535 -18.853699 -23.216370 77.890399 -118.810976 -51.054185 148.464131 -118.810976 -51.054185 148.464131 2.061800 0.030035 -1.672526 -35.287037 -0.445929 -1.399706 55.822208 -12.328966 -6.545804 19.321693 4.587304 0.771423 -6.101058 0.415324 7.643348 -25.462959 -1.184085 -5.252095 21.021528 -2.933260 -0.528790 8.146365 -2.830741 -0.188593
1.415713 0.144198 11.498074 -60.772054 -23.317021 -44.840811 -46.746371 -29.370836 -62.465732 -46.746371 -29.370836 -62.465732 -65.591899 -11.991970 -18.516069 9.207975 -6.901287 73.661305 5.094206 -7.746971 -66.584727 -4.865446 4.684961 -91.365989 -65.790683 24.127186 -143.356331 -65.790683 24.127186 -143.356331 -0.798096 -0.937818 80.805309 -19.228799 -23.545693 78.204280 -119.572644 -51.103135 148.885306 -119.572644 -51.103135 148.885306 1.438247 0.021318 -1.694902 -36.116032 -0.601186 -1.837959 57.307528 -11.295436 -6.138530 18.364207 6.628053 1.080692 -8.368724 0.590867 8.062912 -28.537101 -1.317820 -5.178289 23.033253 -0.968501 -0.177724 8.945127 -0.103002 -0.001933
1.503242 0.144508 12.486189 -78.423666 -14.280906 -22.148850 -46.524683 -29.336432 -62.673130 -46.524683 -29.336432 -62.673130 -65.451777 -11.959826 -18.515911 8.638422 -6.497095 73.853449 4.575884 -6.975140 -66.491720 -7.624222 7.129718 -93.450970 -70.209340 24.675685 -145.397260 -70.209340 24.675685 -145.397260 -0.726783 -0.850964 81.004300 -19.316189 -23.533537 78.497541 -120.250570 -51.090870 149.294149 -120.250570 -51.090870 149.294149 0.676255 0.009848 -1.644781 -37.359109 -0.688264 -2.032824 60.740428 -9.132818 -5.304848 19.989785 9.306435 1.678690 -8.711479 0.641298 8.405646 -30.254977 -1.419164 -5.243516 23.844964 1.328753 0.279313 9.131845 3.019695 0.235297
1.603380 0.144230 13.628698 -88.530754 -5.738694 -5.993992 -46.489366 -29.330794 -62.706103 -46.489366 -29.330794 -62.706103 -65.324212 -11.955556 -18.553941 8.382484 -6.310077 73.899932 4.335896 -6.615184 -66.444283 -10.118724 9.227916 -95.168648 -73.252300 25.208589 -146.514103 -73.252300 25.208589 -146.514103 -0.664165 -0.773688 81.315303 -19.207673 -23.264676 78.838494 -121.463619 -51.029124 150.045691 -121.463619 -51.029124 150.045691 0.164954 0.002288 -1.559926 -38.676495 -0.706257 -2.014833 64.320477 -6.524522 -4.050173 22.809108 11.781088 2.413271 -9.356910 0.698643 8.523447 -31.249203 -1.489269 -5.321243 24.068978 2.137256 0.456005 9.064104 4.123280 0.327614
1.652808 0.143312 14.138788 -89.093089 -1.509869 -1.642138 -46.319384 -29.302285 -62.864210 -46.319384 -29.302285 -62.864210 -64.972584 -12.082466 -18.877269 8.110521 -6.107620 73.926955 4.171855 -6.360332 -66.485634 -11.559974 10.407954 -95.987264 -73.028796 25.211935 -146.368936 -73.028796 25.211935 -146.368936 -0.604148 -0.697927 81.778185 -19.016454 -22.846807 79.316688 -122.791709 -50.986032 150.847211 -122.791709 -50.986032 150.847211 0.044749 0.000616 -1.492359 -39.645879 -0.686234 -1.905859 66.891811 -3.553960 -2.285205 25.652716 14.205856 3.289256 -10.161405 0.756013 8.488614 -32.255909 -1.543482 -5.333624 24.476159 2.021369 0.438191 9.277713 3.997553 0.324481
1.628016 0.138774 13.871168 -66.484366 -0.712154 -23.985789 -46.573499 -29.337704 -62.624751 -46.573499 -29.337704 -62.624751 -64.157768 -12.325052 -19.556314 7.697778 -5.795596 73.917579 4.153706 -6.315378 -66.632565 -10.613929 9.532876 -96.182002 -70.474942 24.662394 -145.594197 -70.474942 24.662394 -145.594197 -0.951547 -1.090744 82.157415 -18.738414 -22.349826 79.743499 -121.495382 -50.140099 150.658226 -121.495382 -50.140099 150.658226 6.638664 0.113540 -1.599804 -39.543450 -0.638575 -1.772966 68.424833 -2.302369 -1.557550 28.968066 14.477907 3.724127 -9.362517 0.693884 8.449589 -33.196846 -1.561770 -5.238481 25.008174 1.503420 0.330313 9.643683 3.427306 0.286444
1.593043 0.132703 13.512018 -28.155498 -3.942756 -65.504941 -47.172347 -29.429588 -62.064057 -47.172347 -29.429588 -62.064057 -63.388981 -12.515184 -20.141421 7.301111 -5.488813 73.835431 4.421805 -6.706357 -66.767547 -7.135602 6.423105 -95.960615 -65.208780 23.454267 -143.979174 -65.208780 23.454267 -143.979174 -1.692349 -1.937757 82.288419 -18.356702 -21.818645 79.948228 -117.894454 -48.756953 149.496083 -117.894454 -48.756953 149.496083 16.043744 0.258719 -1.712066 -38.745070 -0.579977 -1.646356 69.788519 -3.194347 -2.236056 32.071634 12.733498 3.641130 -7.112911 0.527604 8.483069 -32.949378 -1.414381 -4.757373 25.186027 -0.038635 -0.001806 9.971175 1.376667 0.123513
